<mxfile host="app.diagrams.net" modified="2024-01-18T12:43:23.894Z" agent="Mozilla/5.0 (Macintosh; Intel Mac OS X 10_15_7) AppleWebKit/537.36 (KHTML, like Gecko) Chrome/116.0.0.0 Safari/537.36" etag="zJ7Mwu2WEWPzy9kHLYkL" version="22.1.21" type="github">
  <diagram name="第 1 页" id="C8El7X4R0MNUI12ComAL">
    <mxGraphModel dx="1526" dy="873" grid="1" gridSize="10" guides="1" tooltips="1" connect="1" arrows="1" fold="1" page="0" pageScale="1" pageWidth="827" pageHeight="1169" math="0" shadow="0">
      <root>
        <mxCell id="0" />
        <mxCell id="1" parent="0" />
        <mxCell id="TxfDrytHoigwNO3QsFBK-1" value="App&lt;br&gt;(iOS / Android)" style="shape=umlLifeline;perimeter=lifelinePerimeter;whiteSpace=wrap;html=1;container=1;dropTarget=0;collapsible=0;recursiveResize=0;outlineConnect=0;portConstraint=eastwest;newEdgeStyle={&quot;curved&quot;:0,&quot;rounded&quot;:0};" parent="1" vertex="1">
          <mxGeometry x="360" y="120" width="100" height="1960" as="geometry" />
        </mxCell>
        <mxCell id="TxfDrytHoigwNO3QsFBK-7" value="" style="html=1;points=[[0,0,0,0,5],[0,1,0,0,-5],[1,0,0,0,5],[1,1,0,0,-5]];perimeter=orthogonalPerimeter;outlineConnect=0;targetShapes=umlLifeline;portConstraint=eastwest;newEdgeStyle={&quot;curved&quot;:0,&quot;rounded&quot;:0};" parent="TxfDrytHoigwNO3QsFBK-1" vertex="1">
          <mxGeometry x="45" y="70" width="10" height="1870" as="geometry" />
        </mxCell>
        <mxCell id="TxfDrytHoigwNO3QsFBK-3" value="Method Channel" style="shape=umlLifeline;perimeter=lifelinePerimeter;whiteSpace=wrap;html=1;container=1;dropTarget=0;collapsible=0;recursiveResize=0;outlineConnect=0;portConstraint=eastwest;newEdgeStyle={&quot;curved&quot;:0,&quot;rounded&quot;:0};" parent="1" vertex="1">
          <mxGeometry x="600" y="120" width="100" height="1960" as="geometry" />
        </mxCell>
        <mxCell id="TxfDrytHoigwNO3QsFBK-13" value="" style="html=1;points=[[0,0,0,0,5],[0,1,0,0,-5],[1,0,0,0,5],[1,1,0,0,-5]];perimeter=orthogonalPerimeter;outlineConnect=0;targetShapes=umlLifeline;portConstraint=eastwest;newEdgeStyle={&quot;curved&quot;:0,&quot;rounded&quot;:0};" parent="TxfDrytHoigwNO3QsFBK-3" vertex="1">
          <mxGeometry x="45" y="120" width="10" height="1810" as="geometry" />
        </mxCell>
        <mxCell id="TxfDrytHoigwNO3QsFBK-22" value="GetIden3commProofs&lt;br&gt;UseCase" style="shape=umlLifeline;perimeter=lifelinePerimeter;whiteSpace=wrap;html=1;container=1;dropTarget=0;collapsible=0;recursiveResize=0;outlineConnect=0;portConstraint=eastwest;newEdgeStyle={&quot;curved&quot;:0,&quot;rounded&quot;:0};" parent="1" vertex="1">
          <mxGeometry x="832" y="120" width="120" height="1960" as="geometry" />
        </mxCell>
        <mxCell id="kKGWQNoMtcEd__acopYI-4" value="" style="html=1;points=[[0,0,0,0,5],[0,1,0,0,-5],[1,0,0,0,5],[1,1,0,0,-5]];perimeter=orthogonalPerimeter;outlineConnect=0;targetShapes=umlLifeline;portConstraint=eastwest;newEdgeStyle={&quot;curved&quot;:0,&quot;rounded&quot;:0};" parent="TxfDrytHoigwNO3QsFBK-22" vertex="1">
          <mxGeometry x="55" y="160" width="10" height="1730" as="geometry" />
        </mxCell>
        <mxCell id="kKGWQNoMtcEd__acopYI-1" value="getProofs&lt;br&gt;（&lt;b&gt;&lt;i&gt;Iden3MessageEntity&lt;/i&gt;&lt;/b&gt;，&lt;br&gt;&lt;b style=&quot;border-color: var(--border-color);&quot;&gt;&lt;i style=&quot;border-color: var(--border-color);&quot;&gt;&lt;font style=&quot;border-color: var(--border-color);&quot; color=&quot;#ff33ff&quot;&gt;genesisDID&lt;/font&gt;,&amp;nbsp;&lt;i style=&quot;border-color: var(--border-color);&quot;&gt;&lt;font style=&quot;border-color: var(--border-color);&quot; color=&quot;#0000ff&quot;&gt;privateKey,&amp;nbsp;&lt;br style=&quot;border-color: var(--border-color);&quot;&gt;&lt;/font&gt;&lt;font style=&quot;border-color: var(--border-color);&quot; color=&quot;#cc6600&quot;&gt;profileNonceForScenario1,&lt;br&gt;&lt;/font&gt;&lt;/i&gt;&lt;/i&gt;&lt;/b&gt;ethereumUrl, stateContractAddr）" style="html=1;verticalAlign=bottom;endArrow=block;curved=0;rounded=0;sourcePerimeterSpacing=0;entryX=0;entryY=0;entryDx=0;entryDy=5;entryPerimeter=0;" parent="1" edge="1">
          <mxGeometry relative="1" as="geometry">
            <mxPoint x="416" y="240" as="sourcePoint" />
            <mxPoint x="645" y="240" as="targetPoint" />
          </mxGeometry>
        </mxCell>
        <mxCell id="kKGWQNoMtcEd__acopYI-2" value="&lt;i style=&quot;background-color: rgb(255, 255, 255);&quot;&gt;&lt;span style=&quot;font-size: 10px;&quot;&gt;&lt;font style=&quot;&quot; color=&quot;#999999&quot;&gt;abstract class &lt;/font&gt;&lt;b style=&quot;&quot;&gt;Iden3MessageEntity&lt;/b&gt;&lt;font style=&quot;&quot; color=&quot;#999999&quot;&gt; {&lt;/font&gt;&lt;/span&gt;&lt;br&gt;&lt;/i&gt;&lt;div style=&quot;line-height: 140%; font-size: 10px;&quot;&gt;&lt;div style=&quot;line-height: 140%;&quot;&gt;  &lt;font color=&quot;#999999&quot; style=&quot;font-size: 10px;&quot;&gt;&lt;i style=&quot;background-color: rgb(255, 255, 255);&quot;&gt;&lt;font style=&quot;font-family: gbLCjAvpehOjc9brSCwv; font-size: 10px;&quot;&gt;&amp;nbsp;&lt;/font&gt;&lt;font style=&quot;font-size: 10px;&quot;&gt; final String id;&lt;/font&gt;&lt;/i&gt;&lt;/font&gt;&lt;/div&gt;&lt;div style=&quot;line-height: 140%;&quot;&gt;  &lt;font color=&quot;#999999&quot; style=&quot;font-size: 10px;&quot; face=&quot;Helvetica&quot;&gt;&lt;i style=&quot;background-color: rgb(255, 255, 255);&quot;&gt;&lt;font style=&quot;font-size: 10px;&quot;&gt;&amp;nbsp;&lt;/font&gt;&lt;font style=&quot;font-size: 10px;&quot;&gt; final String typ;&lt;/font&gt;&lt;/i&gt;&lt;/font&gt;&lt;/div&gt;&lt;div style=&quot;line-height: 140%;&quot;&gt;  &lt;font color=&quot;#999999&quot; style=&quot;font-size: 10px;&quot;&gt;&lt;i style=&quot;background-color: rgb(255, 255, 255);&quot;&gt;&lt;font style=&quot;font-size: 10px;&quot;&gt;&lt;font style=&quot;font-size: 10px;&quot; face=&quot;gbLCjAvpehOjc9brSCwv&quot;&gt;&amp;nbsp;&lt;/font&gt;&lt;font style=&quot;font-size: 10px;&quot; face=&quot;Helvetica&quot;&gt; &lt;/font&gt;&lt;/font&gt;&lt;font face=&quot;Helvetica&quot; style=&quot;font-size: 10px;&quot;&gt;final String type;&lt;/font&gt;&lt;/i&gt;&lt;/font&gt;&lt;/div&gt;&lt;div style=&quot;line-height: 140%;&quot;&gt;  &lt;font color=&quot;#999999&quot; style=&quot;font-size: 10px;&quot;&gt;&lt;i style=&quot;background-color: rgb(255, 255, 255);&quot;&gt;&lt;font style=&quot;font-family: gbLCjAvpehOjc9brSCwv; font-size: 10px;&quot;&gt;&amp;nbsp; &lt;/font&gt;&lt;font style=&quot;font-size: 10px;&quot;&gt;final Iden3MessageType messageType;&lt;/font&gt;&lt;/i&gt;&lt;/font&gt;&lt;/div&gt;&lt;div style=&quot;line-height: 140%;&quot;&gt;  &lt;font color=&quot;#999999&quot; style=&quot;font-size: 10px;&quot;&gt;&lt;i style=&quot;background-color: rgb(255, 255, 255);&quot;&gt;&lt;font style=&quot;font-family: gbLCjAvpehOjc9brSCwv; font-size: 10px;&quot;&gt;&amp;nbsp;&lt;/font&gt;&lt;font style=&quot;font-size: 10px;&quot;&gt; &lt;font style=&quot;font-size: 10px;&quot; face=&quot;Helvetica&quot;&gt;final String thid;&lt;/font&gt;&lt;/font&gt;&lt;/i&gt;&lt;/font&gt;&lt;/div&gt;&lt;div style=&quot;line-height: 140%;&quot;&gt;  &lt;font color=&quot;#999999&quot; style=&quot;font-size: 10px;&quot;&gt;&lt;i style=&quot;background-color: rgb(255, 255, 255);&quot;&gt;&lt;font style=&quot;font-family: Helvetica; font-size: 10px;&quot;&gt;&amp;nbsp; &lt;/font&gt;&lt;font face=&quot;Helvetica&quot; style=&quot;font-size: 10px;&quot;&gt;abstract final body;&lt;/font&gt;&lt;/i&gt;&lt;/font&gt;&lt;/div&gt;&lt;div style=&quot;line-height: 140%;&quot;&gt;  &lt;font color=&quot;#999999&quot; style=&quot;font-size: 10px;&quot;&gt;&lt;i style=&quot;background-color: rgb(255, 255, 255);&quot;&gt;&lt;font face=&quot;gbLCjAvpehOjc9brSCwv&quot; style=&quot;font-size: 10px;&quot;&gt;&amp;nbsp;&lt;/font&gt;&lt;font face=&quot;Helvetica&quot; style=&quot;font-size: 10px;&quot;&gt; &lt;/font&gt;&lt;font face=&quot;Helvetica&quot; style=&quot;font-size: 10px;&quot;&gt;final String from;&lt;/font&gt;&lt;/i&gt;&lt;/font&gt;&lt;/div&gt;&lt;div style=&quot;line-height: 140%;&quot;&gt;  &lt;font color=&quot;#999999&quot; style=&quot;font-size: 10px;&quot;&gt;&lt;i style=&quot;background-color: rgb(255, 255, 255);&quot;&gt;&lt;font face=&quot;gbLCjAvpehOjc9brSCwv&quot; style=&quot;font-size: 10px;&quot;&gt;&amp;nbsp; &lt;/font&gt;&lt;font face=&quot;Helvetica&quot; style=&quot;font-size: 10px;&quot;&gt;final String? to;&lt;/font&gt;&lt;/i&gt;&lt;/font&gt;&lt;/div&gt;&lt;div style=&quot;line-height: 140%;&quot;&gt;&lt;font color=&quot;#999999&quot; face=&quot;gbLCjAvpehOjc9brSCwv&quot; style=&quot;font-size: 10px;&quot;&gt;&lt;i style=&quot;background-color: rgb(255, 255, 255);&quot;&gt;}&lt;/i&gt;&lt;/font&gt;&lt;/div&gt;&lt;div style=&quot;line-height: 140%;&quot;&gt;&lt;br&gt;&lt;/div&gt;&lt;/div&gt;" style="text;html=1;align=left;verticalAlign=middle;resizable=0;points=[];autosize=1;strokeColor=none;fillColor=none;" parent="1" vertex="1">
          <mxGeometry x="440" y="250" width="200" height="170" as="geometry" />
        </mxCell>
        <mxCell id="kKGWQNoMtcEd__acopYI-3" value="&lt;div style=&quot;line-height: 120%;&quot;&gt;GetIden3commProofsUseCase&lt;font face=&quot;Helvetica&quot; style=&quot;background-color: rgb(255, 255, 255);&quot;&gt;&lt;font style=&quot;font-size: 12px;&quot; color=&quot;#abb2bf&quot;&gt;.&lt;/font&gt;&lt;font style=&quot;font-size: 11px;&quot;&gt;execute&lt;/font&gt;&lt;/font&gt;&lt;/div&gt;&lt;div style=&quot;line-height: 120%;&quot;&gt;（&lt;b style=&quot;border-color: var(--border-color);&quot;&gt;&lt;i style=&quot;border-color: var(--border-color);&quot;&gt;Iden3MessageEntity&lt;/i&gt;&lt;/b&gt;，&lt;br style=&quot;border-color: var(--border-color);&quot;&gt;&lt;b style=&quot;border-color: var(--border-color);&quot;&gt;&lt;i style=&quot;border-color: var(--border-color);&quot;&gt;&lt;font style=&quot;border-color: var(--border-color);&quot; color=&quot;#ff33ff&quot;&gt;genesisDID&lt;/font&gt;,&amp;nbsp;&lt;i style=&quot;border-color: var(--border-color);&quot;&gt;&lt;font style=&quot;border-color: var(--border-color);&quot; color=&quot;#0000ff&quot;&gt;privateKey,&amp;nbsp;&lt;br style=&quot;border-color: var(--border-color);&quot;&gt;&lt;/font&gt;&lt;font style=&quot;border-color: var(--border-color);&quot; color=&quot;#cc6600&quot;&gt;profileNonceForScenario1,&lt;br style=&quot;border-color: var(--border-color);&quot;&gt;&lt;/font&gt;&lt;/i&gt;&lt;/i&gt;&lt;/b&gt;ethereumUrl, stateContractAddr）&lt;/div&gt;" style="html=1;verticalAlign=bottom;endArrow=block;curved=0;rounded=0;sourcePerimeterSpacing=0;entryX=0;entryY=0;entryDx=0;entryDy=5;entryPerimeter=0;" parent="1" edge="1">
          <mxGeometry relative="1" as="geometry">
            <mxPoint x="656" y="290" as="sourcePoint" />
            <mxPoint x="885" y="290" as="targetPoint" />
          </mxGeometry>
        </mxCell>
        <mxCell id="kKGWQNoMtcEd__acopYI-5" value="&lt;div style=&quot;line-height: 120%;&quot;&gt;&lt;div style=&quot;line-height: 21px;&quot;&gt;&lt;div style=&quot;line-height: 21px;&quot;&gt;&lt;span style=&quot;background-color: rgb(255, 255, 255);&quot;&gt;&lt;font face=&quot;Helvetica&quot; style=&quot;font-size: 11px;&quot;&gt;GetProofRequestsUseCase.generate&lt;/font&gt;&lt;/span&gt;&lt;/div&gt;&lt;div style=&quot;line-height: 21px;&quot;&gt;&lt;div style=&quot;line-height: 21px;&quot;&gt;&lt;span style=&quot;background-color: rgb(255, 255, 255);&quot;&gt;&lt;font face=&quot;Helvetica&quot; style=&quot;font-size: 11px;&quot;&gt;&lt;b&gt;ProofRequestEntity array&lt;/b&gt;&lt;/font&gt;&lt;/span&gt;&lt;/div&gt;&lt;/div&gt;&lt;/div&gt;&lt;/div&gt;&lt;div style=&quot;line-height: 21px;&quot;&gt;&lt;/div&gt;" style="html=1;verticalAlign=bottom;endArrow=block;curved=0;rounded=0;sourcePerimeterSpacing=0;entryX=0;entryY=0;entryDx=0;entryDy=5;entryPerimeter=0;" parent="1" edge="1">
          <mxGeometry relative="1" as="geometry">
            <mxPoint x="900" y="320" as="sourcePoint" />
            <mxPoint x="1129" y="320" as="targetPoint" />
          </mxGeometry>
        </mxCell>
        <mxCell id="kKGWQNoMtcEd__acopYI-6" value="Other&lt;br&gt;UseCase" style="shape=umlLifeline;perimeter=lifelinePerimeter;whiteSpace=wrap;html=1;container=1;dropTarget=0;collapsible=0;recursiveResize=0;outlineConnect=0;portConstraint=eastwest;newEdgeStyle={&quot;curved&quot;:0,&quot;rounded&quot;:0};" parent="1" vertex="1">
          <mxGeometry x="1073.5" y="120" width="120" height="1960" as="geometry" />
        </mxCell>
        <mxCell id="kKGWQNoMtcEd__acopYI-19" value="" style="html=1;points=[[0,0,0,0,5],[0,1,0,0,-5],[1,0,0,0,5],[1,1,0,0,-5]];perimeter=orthogonalPerimeter;outlineConnect=0;targetShapes=umlLifeline;portConstraint=eastwest;newEdgeStyle={&quot;curved&quot;:0,&quot;rounded&quot;:0};" parent="kKGWQNoMtcEd__acopYI-6" vertex="1">
          <mxGeometry x="55" y="196" width="10" height="40" as="geometry" />
        </mxCell>
        <mxCell id="BkAWaWP3HrZWic8StWcY-7" value="" style="html=1;points=[[0,0,0,0,5],[0,1,0,0,-5],[1,0,0,0,5],[1,1,0,0,-5]];perimeter=orthogonalPerimeter;outlineConnect=0;targetShapes=umlLifeline;portConstraint=eastwest;newEdgeStyle={&quot;curved&quot;:0,&quot;rounded&quot;:0};" vertex="1" parent="kKGWQNoMtcEd__acopYI-6">
          <mxGeometry x="55" y="390" width="10" height="590" as="geometry" />
        </mxCell>
        <mxCell id="kKGWQNoMtcEd__acopYI-20" value="&lt;font style=&quot;font-size: 10px;&quot;&gt;&lt;i style=&quot;&quot;&gt;&lt;font color=&quot;#999999&quot;&gt;class &lt;/font&gt;&lt;b style=&quot;&quot;&gt;ProofRequestEntity&lt;/b&gt;&lt;font color=&quot;#999999&quot;&gt; {&lt;/font&gt;&lt;br&gt;&lt;font color=&quot;#999999&quot;&gt;&amp;nbsp; final ProofScopeRequest scope;&lt;/font&gt;&lt;br&gt;&lt;span style=&quot;color: rgb(153, 153, 153);&quot; class=&quot;Apple-converted-space&quot;&gt;&amp;nbsp; &lt;/span&gt;&lt;font color=&quot;#999999&quot;&gt;final Map&amp;lt;String, dynamic&amp;gt; context;&lt;/font&gt;&lt;br&gt;&lt;span style=&quot;color: rgb(153, 153, 153);&quot; class=&quot;Apple-converted-space&quot;&gt;&amp;nbsp; &lt;/span&gt;&lt;font color=&quot;#999999&quot;&gt;final ProofQueryParamEntity queryParam;&lt;/font&gt;&lt;br&gt;&lt;font color=&quot;#999999&quot;&gt;}&lt;/font&gt;&lt;/i&gt;&lt;/font&gt;" style="text;html=1;align=left;verticalAlign=middle;resizable=0;points=[];autosize=1;strokeColor=none;fillColor=none;" parent="1" vertex="1">
          <mxGeometry x="930" y="320" width="220" height="90" as="geometry" />
        </mxCell>
        <mxCell id="kKGWQNoMtcEd__acopYI-56" value="&lt;div style=&quot;line-height: 21px;&quot;&gt;&lt;br&gt;&lt;/div&gt;" style="html=1;verticalAlign=bottom;endArrow=open;dashed=1;endSize=8;curved=0;rounded=0;" parent="1" edge="1">
          <mxGeometry relative="1" as="geometry">
            <mxPoint x="883" y="2000" as="sourcePoint" />
            <mxPoint x="653" y="2000" as="targetPoint" />
          </mxGeometry>
        </mxCell>
        <mxCell id="kKGWQNoMtcEd__acopYI-57" value="&lt;div style=&quot;line-height: 21px;&quot;&gt;&lt;br&gt;&lt;/div&gt;" style="html=1;verticalAlign=bottom;endArrow=open;dashed=1;endSize=8;curved=0;rounded=0;" parent="1" edge="1">
          <mxGeometry relative="1" as="geometry">
            <mxPoint x="645" y="2040" as="sourcePoint" />
            <mxPoint x="415" y="2040" as="targetPoint" />
          </mxGeometry>
        </mxCell>
        <mxCell id="BkAWaWP3HrZWic8StWcY-2" value="loop for each request" style="shape=umlFrame;whiteSpace=wrap;html=1;pointerEvents=0;width=60;height=50;" vertex="1" parent="1">
          <mxGeometry x="820" y="420" width="620" height="470" as="geometry" />
        </mxCell>
        <mxCell id="BkAWaWP3HrZWic8StWcY-3" value="" style="html=1;points=[[0,0,0,0,5],[0,1,0,0,-5],[1,0,0,0,5],[1,1,0,0,-5]];perimeter=orthogonalPerimeter;outlineConnect=0;targetShapes=umlLifeline;portConstraint=eastwest;newEdgeStyle={&quot;curved&quot;:0,&quot;rounded&quot;:0};" vertex="1" parent="1">
          <mxGeometry x="1128.5" y="460" width="10" height="30" as="geometry" />
        </mxCell>
        <mxCell id="BkAWaWP3HrZWic8StWcY-4" value="&lt;div style=&quot;line-height: 120%;&quot;&gt;&lt;div style=&quot;line-height: 21px;&quot;&gt;&lt;div style=&quot;line-height: 21px;&quot;&gt;&lt;div style=&quot;line-height: 21px;&quot;&gt;&lt;span style=&quot;background-color: rgb(255, 255, 255);&quot;&gt;&lt;font style=&quot;font-size: 11px;&quot; face=&quot;Helvetica&quot;&gt;isProofCircuitSupported.execute()&lt;/font&gt;&lt;/span&gt;&lt;/div&gt;&lt;/div&gt;&lt;/div&gt;&lt;/div&gt;&lt;div style=&quot;line-height: 21px;&quot;&gt;&lt;/div&gt;" style="html=1;verticalAlign=bottom;endArrow=block;curved=0;rounded=0;sourcePerimeterSpacing=0;entryX=0;entryY=0;entryDx=0;entryDy=5;entryPerimeter=0;" edge="1" parent="1">
          <mxGeometry relative="1" as="geometry">
            <mxPoint x="900" y="469.5" as="sourcePoint" />
            <mxPoint x="1129" y="469.5" as="targetPoint" />
          </mxGeometry>
        </mxCell>
        <mxCell id="BkAWaWP3HrZWic8StWcY-6" value="&lt;div style=&quot;line-height: 120%;&quot;&gt;&lt;div style=&quot;line-height: 21px;&quot;&gt;&lt;div style=&quot;line-height: 21px;&quot;&gt;&lt;div style=&quot;line-height: 21px;&quot;&gt;&lt;font style=&quot;font-size: 11px;&quot; face=&quot;Helvetica&quot;&gt;getFilters(from:&amp;nbsp;&lt;/font&gt;&lt;b style=&quot;border-color: var(--border-color);&quot;&gt;ProofRequestEntity&lt;/b&gt;)&lt;/div&gt;&lt;/div&gt;&lt;/div&gt;&lt;/div&gt;&lt;div style=&quot;line-height: 21px;&quot;&gt;&lt;/div&gt;" style="html=1;verticalAlign=bottom;endArrow=block;curved=0;rounded=0;sourcePerimeterSpacing=0;entryX=0;entryY=0;entryDx=0;entryDy=5;entryPerimeter=0;" edge="1" parent="1">
          <mxGeometry relative="1" as="geometry">
            <mxPoint x="899.5" y="520" as="sourcePoint" />
            <mxPoint x="1128.5" y="520" as="targetPoint" />
          </mxGeometry>
        </mxCell>
        <mxCell id="BkAWaWP3HrZWic8StWcY-8" value="" style="html=1;points=[[0,0,0,0,5],[0,1,0,0,-5],[1,0,0,0,5],[1,1,0,0,-5]];perimeter=orthogonalPerimeter;outlineConnect=0;targetShapes=umlLifeline;portConstraint=eastwest;newEdgeStyle={&quot;curved&quot;:0,&quot;rounded&quot;:0};" vertex="1" parent="1">
          <mxGeometry x="1134" y="550" width="10" height="40" as="geometry" />
        </mxCell>
        <mxCell id="BkAWaWP3HrZWic8StWcY-9" value="&lt;div style=&quot;line-height: 120%;&quot;&gt;&lt;div style=&quot;line-height: 120%;&quot;&gt;&lt;span style=&quot;background-color: rgb(255, 255, 255);&quot;&gt;StorageClaimDataSource&lt;/span&gt;.getClaims(&lt;/div&gt;&lt;div style=&quot;line-height: 120%;&quot;&gt;filters,&amp;nbsp;&lt;b style=&quot;border-color: var(--border-color); text-align: center;&quot;&gt;&lt;i style=&quot;border-color: var(--border-color);&quot;&gt;&lt;font style=&quot;border-color: var(--border-color);&quot; color=&quot;#ff33ff&quot;&gt;genesisDID&lt;/font&gt;,&amp;nbsp;&lt;i style=&quot;border-color: var(--border-color);&quot;&gt;&lt;font style=&quot;border-color: var(--border-color);&quot; color=&quot;#0000ff&quot;&gt;privateKey)&lt;/font&gt;&lt;/i&gt;&lt;/i&gt;&lt;/b&gt;&lt;/div&gt;&lt;div style=&quot;line-height: 120%;&quot;&gt;&lt;b style=&quot;border-color: var(--border-color); text-align: center;&quot;&gt;&lt;i style=&quot;border-color: var(--border-color);&quot;&gt;&lt;i style=&quot;border-color: var(--border-color);&quot;&gt;&lt;font style=&quot;border-color: var(--border-color);&quot; color=&quot;#0000ff&quot;&gt;&lt;br&gt;&lt;/font&gt;&lt;/i&gt;&lt;/i&gt;&lt;/b&gt;&lt;/div&gt;&lt;div style=&quot;line-height: 120%;&quot;&gt;&lt;b style=&quot;border-color: var(--border-color); text-align: center;&quot;&gt;&lt;i style=&quot;border-color: var(--border-color);&quot;&gt;&lt;i style=&quot;border-color: var(--border-color);&quot;&gt;&lt;font style=&quot;border-color: var(--border-color);&quot; color=&quot;#0000ff&quot;&gt;&lt;b style=&quot;border-color: var(--border-color); color: rgb(0, 0, 0); font-style: normal;&quot;&gt;&lt;u style=&quot;border-color: var(--border-color);&quot;&gt;&lt;i style=&quot;border-color: var(--border-color);&quot;&gt;return ClaimEntity array&lt;/i&gt;&lt;/u&gt;&lt;/b&gt;&lt;br&gt;&lt;/font&gt;&lt;/i&gt;&lt;/i&gt;&lt;/b&gt;&lt;/div&gt;&lt;/div&gt;" style="html=1;align=left;spacingLeft=2;endArrow=block;rounded=0;edgeStyle=orthogonalEdgeStyle;curved=0;rounded=0;" edge="1" target="BkAWaWP3HrZWic8StWcY-8" parent="1">
          <mxGeometry relative="1" as="geometry">
            <mxPoint x="1139" y="530" as="sourcePoint" />
            <Array as="points">
              <mxPoint x="1169" y="560" />
            </Array>
          </mxGeometry>
        </mxCell>
        <mxCell id="BkAWaWP3HrZWic8StWcY-10" value="&lt;b style=&quot;background-color: rgb(255, 255, 255);&quot;&gt;&lt;i style=&quot;&quot;&gt;&lt;u&gt;ClaimEntity array(&lt;/u&gt;one for each request&lt;u&gt;)&lt;/u&gt;&lt;/i&gt;&lt;/b&gt;" style="html=1;verticalAlign=bottom;endArrow=open;dashed=1;endSize=8;curved=0;rounded=0;" edge="1" parent="1">
          <mxGeometry relative="1" as="geometry">
            <mxPoint x="1128.5" y="950" as="sourcePoint" />
            <mxPoint x="898.5" y="950" as="targetPoint" />
          </mxGeometry>
        </mxCell>
        <mxCell id="BkAWaWP3HrZWic8StWcY-11" value="&lt;font style=&quot;font-size: 10px;&quot;&gt;&lt;i style=&quot;&quot;&gt;&lt;font color=&quot;#999999&quot;&gt;class &lt;/font&gt;&lt;b style=&quot;&quot;&gt;&lt;u&gt;ClaimEntity&lt;/u&gt;&lt;/b&gt;&lt;font color=&quot;#999999&quot;&gt; {&lt;/font&gt;&lt;/i&gt;&lt;br&gt;&lt;i style=&quot;color: rgb(153, 153, 153);&quot;&gt;&amp;nbsp; final String id;&lt;/i&gt;&lt;br&gt;&lt;i style=&quot;color: rgb(153, 153, 153);&quot;&gt;&lt;span class=&quot;Apple-converted-space&quot;&gt;&amp;nbsp; &lt;/span&gt;final String issuer;&lt;/i&gt;&lt;br&gt;&lt;i style=&quot;color: rgb(153, 153, 153);&quot;&gt;&lt;span class=&quot;Apple-converted-space&quot;&gt;&amp;nbsp; &lt;/span&gt;final String did;&lt;/i&gt;&lt;br&gt;&lt;i style=&quot;color: rgb(153, 153, 153);&quot;&gt;&lt;span class=&quot;Apple-converted-space&quot;&gt;&amp;nbsp; &lt;/span&gt;final ClaimState state;&lt;/i&gt;&lt;br&gt;&lt;i style=&quot;color: rgb(153, 153, 153);&quot;&gt;&lt;span class=&quot;Apple-converted-space&quot;&gt;&amp;nbsp; &lt;/span&gt;final String? expiration;&lt;/i&gt;&lt;br&gt;&lt;i style=&quot;color: rgb(153, 153, 153);&quot;&gt;&lt;span class=&quot;Apple-converted-space&quot;&gt;&amp;nbsp; &lt;/span&gt;final Map&amp;lt;String, dynamic&amp;gt;? schema;&lt;/i&gt;&lt;br&gt;&lt;i style=&quot;color: rgb(153, 153, 153);&quot;&gt;&lt;span class=&quot;Apple-converted-space&quot;&gt;&amp;nbsp; &lt;/span&gt;final String type;&lt;/i&gt;&lt;br&gt;&lt;i style=&quot;color: rgb(153, 153, 153);&quot;&gt;&lt;span class=&quot;Apple-converted-space&quot;&gt;&amp;nbsp; &lt;/span&gt;final Map&amp;lt;String, dynamic&amp;gt; info;&lt;/i&gt;&lt;br&gt;&lt;i style=&quot;color: rgb(153, 153, 153);&quot;&gt;}&lt;/i&gt;&lt;/font&gt;" style="text;html=1;align=left;verticalAlign=middle;resizable=0;points=[];autosize=1;strokeColor=none;fillColor=none;" vertex="1" parent="1">
          <mxGeometry x="1170" y="570" width="200" height="160" as="geometry" />
        </mxCell>
        <mxCell id="BkAWaWP3HrZWic8StWcY-12" value="" style="html=1;points=[[0,0,0,0,5],[0,1,0,0,-5],[1,0,0,0,5],[1,1,0,0,-5]];perimeter=orthogonalPerimeter;outlineConnect=0;targetShapes=umlLifeline;portConstraint=eastwest;newEdgeStyle={&quot;curved&quot;:0,&quot;rounded&quot;:0};" vertex="1" parent="1">
          <mxGeometry x="1134" y="790" width="10" height="40" as="geometry" />
        </mxCell>
        <mxCell id="BkAWaWP3HrZWic8StWcY-13" value="&lt;div style=&quot;line-height: 120%;&quot;&gt;&lt;div style=&quot;line-height: 120%;&quot;&gt;compare proofType between claim and sdr&lt;/div&gt;&lt;div style=&quot;line-height: 120%;&quot;&gt;&lt;br&gt;&lt;/div&gt;&lt;div style=&quot;line-height: 120%;&quot;&gt;return the first claim matched&lt;/div&gt;&lt;/div&gt;" style="html=1;align=left;spacingLeft=2;endArrow=block;rounded=0;edgeStyle=orthogonalEdgeStyle;curved=0;rounded=0;" edge="1" parent="1" target="BkAWaWP3HrZWic8StWcY-12">
          <mxGeometry relative="1" as="geometry">
            <mxPoint x="1139" y="770" as="sourcePoint" />
            <Array as="points">
              <mxPoint x="1169" y="800" />
            </Array>
          </mxGeometry>
        </mxCell>
        <mxCell id="BkAWaWP3HrZWic8StWcY-14" value="loop for each claim" style="shape=umlFrame;whiteSpace=wrap;html=1;pointerEvents=0;width=60;height=50;" vertex="1" parent="1">
          <mxGeometry x="1060" y="740" width="330" height="110" as="geometry" />
        </mxCell>
      </root>
    </mxGraphModel>
  </diagram>
</mxfile>
